Coordinates
version=1
nRows=5
nColumns=40
inDegrees=yes

Units are S.I. units (second, meters, Newtons, ...)
Angles are in degrees.

endheader
time	pelvis_tilt	pelvis_list	pelvis_rotation	pelvis_tx	pelvis_ty	pelvis_tz	hip_flexion_r	hip_adduction_r	hip_rotation_r	knee_angle_r	knee_angle_r_beta	ankle_angle_r	subtalar_angle_r	mtp_angle_r	hip_flexion_l	hip_adduction_l	hip_rotation_l	knee_angle_l	knee_angle_l_beta	ankle_angle_l	subtalar_angle_l	mtp_angle_l	lumbar_extension	lumbar_bending	lumbar_rotation	arm_flex_r	arm_add_r	arm_rot_r	elbow_flex_r	pro_sup_r	wrist_flex_r	wrist_dev_r	arm_flex_l	arm_add_l	arm_rot_l	elbow_flex_l	pro_sup_l	wrist_flex_l	wrist_dev_l
     33.58000000	     -5.48665139	     -4.63445570	     10.12119865	      0.90876824	      0.91724280	      0.49473928	      0.46365117	      3.62607732	    -18.23251251	     16.31975427	     16.31975427	     18.94558845	     -1.78930198	     -2.30375716	     29.37901107	     -4.19037986	      4.23008765	     24.15400350	     24.15400350	      2.95305494	    -11.84622732	      1.87556425	     -8.61310622	      2.97954104	      5.03910420	     60.26670837	    -20.37856055	    -10.92086317	     68.99360296	     45.47524225	      0.00000000	      0.00000000	     -9.62359035	    -10.51957738	      8.35253959	     40.10218306	     45.21919115	      0.00000000	      0.00000000
     33.60057143	     -5.57457152	     -4.63387789	      9.52686117	      0.91011738	      0.91766595	      0.49106310	      0.07032796	      3.30168680	    -17.86605271	     16.42106097	     16.42106097	     18.76301686	     -1.39037421	     -2.32594993	     29.19769296	     -4.12979379	      4.09650693	     24.86436061	     24.86436061	      3.50239523	    -12.56825397	      1.83086673	     -8.71060520	      3.07557563	      5.23813323	     59.29671519	    -19.84037837	    -10.77686403	     68.20839220	     45.49163987	      0.00000000	      0.00000000	     -8.65290937	    -10.65978457	      8.26263523	     40.64521367	     45.24611351	      0.00000000	      0.00000000
     33.62114286	     -5.68891299	     -4.55643200	      8.94237702	      0.91130394	      0.91793403	      0.48697654	     -0.24985490	      2.67785025	    -18.32828129	     16.70435502	     16.70435502	     18.60330479	      0.27448731	     -3.14732478	     29.17960817	     -3.78543688	      4.46074852	     25.94446193	     25.94446193	      5.06328935	    -13.84552120	      4.88426962	     -8.58930855	      3.00036614	      5.13457251	     59.95809962	    -19.09323234	    -11.46587810	     61.75348063	     45.73487238	      0.00000000	      0.00000000	     -8.74838290	    -11.22863803	      8.26911835	     43.49991045	     45.30710431	      0.00000000	      0.00000000
     33.64171429	     -5.80596934	     -4.70429687	      8.29263058	      0.91245602	      0.91813468	      0.48323116	     -0.52122288	      2.46738118	    -17.94223161	     16.86538643	     16.86538643	     18.36564203	      0.66384129	     -3.17530099	     29.07628015	     -3.87644602	      4.26397545	     26.68880636	     26.68880636	      5.67307442	    -14.51648643	      4.84101109	     -8.64051226	      3.28240995	      5.29813823	     58.73089973	    -18.66650969	    -11.40099686	     60.74251015	     45.76014927	      0.00000000	      0.00000000	     -7.83002827	    -11.38738228	      8.13957395	     44.05216325	     45.33882863	      0.00000000	      0.00000000
     33.66228571	     -5.96399521	     -4.73341745	      7.67313739	      0.91340941	      0.91822874	      0.47920997	     -0.65337305	      1.97304965	    -18.03600255	     17.27225331	     17.27225331	     18.14254707	      1.74727029	     -3.86355547	     29.09788516	     -3.76465978	      4.15183140	     27.66957067	     27.66957067	      7.27795518	    -14.96331540	      7.45869086	     -8.48951154	      3.40282783	      5.02208234	     59.16667059	    -17.61536755	    -12.15878662	     54.31918950	     45.99933548	      0.00000000	      0.00000000	     -7.56144695	    -11.91439211	      8.23736359	     45.99712343	     45.41048574	      0.00000000	      0.00000000
